<svg width="450" height="98" viewBox="0 0 450 98" fill="none" xmlns="http://www.w3.org/2000/svg">
<path d="M0.45 98V0.799996H63.9V17.945H18.81V38.735H55.8V55.88H18.81V80.855H63.9V98H0.45ZM79.4039 98L109.104 0.799996H136.509L166.209 98H147.309L120.849 12.275H124.359L98.3039 98H79.4039ZM97.2239 77.75V60.605H148.524V77.75H97.2239ZM184.382 98V0.799996H225.422C226.367 0.799996 227.627 0.844996 229.202 0.934994C230.822 0.979997 232.262 1.115 233.522 1.34C239.327 2.24 244.075 4.15249 247.765 7.07749C251.5 10.0025 254.245 13.6925 256 18.1475C257.755 22.5575 258.632 27.485 258.632 32.93C258.632 41.075 256.607 48.05 252.557 53.855C248.507 59.615 242.162 63.17 233.522 64.52L225.422 65.06H202.742V98H184.382ZM239.192 98L220.022 58.445L238.922 54.8L259.982 98H239.192ZM202.742 47.915H224.612C225.557 47.915 226.592 47.87 227.717 47.78C228.842 47.69 229.877 47.51 230.822 47.24C233.297 46.565 235.21 45.44 236.56 43.865C237.91 42.245 238.832 40.4675 239.327 38.5325C239.867 36.5525 240.137 34.685 240.137 32.93C240.137 31.175 239.867 29.33 239.327 27.395C238.832 25.415 237.91 23.6375 236.56 22.0625C235.21 20.4425 233.297 19.295 230.822 18.62C229.877 18.35 228.842 18.17 227.717 18.08C226.592 17.99 225.557 17.945 224.612 17.945H202.742V47.915ZM303.442 98V17.945H272.797V0.799996H352.447V17.945H321.802V98H303.442ZM369.369 98V0.799996H387.729V40.76H431.199V0.799996H449.559V98H431.199V57.905H387.729V98H369.369Z" fill="white"/>
</svg>
