<svg width="29" height="28" viewBox="0 0 29 28" fill="none" xmlns="http://www.w3.org/2000/svg">
<path d="M29 14C29 6.26722 22.509 0 14.5 0C6.49105 0 0 6.26722 0 14C0 20.9891 5.30156 26.7805 12.2344 27.8305V18.0469H8.5527V14H12.2344V10.9156C12.2344 7.4074 14.3981 5.46875 17.7115 5.46875C19.2974 5.46875 20.957 5.74219 20.957 5.74219V9.1875H19.1276C17.3264 9.1875 16.7656 10.2676 16.7656 11.375V14H20.7871L20.1442 18.0469H16.7656V27.8305C23.6984 26.7805 29 20.9891 29 14Z" fill="#4F4F4F"/>
<path d="M20.1443 18.0469L20.7871 14H16.7657V11.375C16.7657 10.2676 17.3264 9.1875 19.1276 9.1875H20.9571V5.74219C20.9571 5.74219 19.2975 5.46875 17.7115 5.46875C14.3981 5.46875 12.2344 7.4074 12.2344 10.9156V14H8.55273V18.0469H12.2344V27.8305C12.9735 27.9426 13.7297 28 14.5 28C15.2703 28 16.0265 27.9426 16.7657 27.8305V18.0469H20.1443Z" fill="white"/>
</svg>
