<svg width="92" height="29" viewBox="0 0 92 29" fill="none" xmlns="http://www.w3.org/2000/svg">
<path d="M32.8025 9.66638C32.6449 8.43851 32.3818 7.22784 32.0165 6.04891C31.7649 5.25296 31.4631 4.45619 31.0333 3.74011C29.5069 1.10894 26.3287 0.469483 23.6155 0.178489C21.2969 -0.0546325 18.9579 -0.0326245 16.6361 0.0920874C18.9512 0.226581 21.2574 0.377376 23.5447 0.750697C25.2034 1.03965 26.9154 1.40971 28.3773 2.28963C30.2685 3.39451 30.8963 5.40579 31.3864 7.48677C32.5829 12.809 31.9559 18.7165 28.6771 23.1247C27.7925 24.3029 26.4023 25.1506 25.1228 25.81C20.6538 28.0108 14.5899 29.079 9.54867 27.5523C11.7252 27.8751 14.4412 27.481 16.4342 26.9818C18.9998 26.3391 21.4899 25.2835 23.7169 23.8028C25.3928 22.6718 26.872 21.2525 28.0912 19.6054C28.2607 19.369 28.436 19.1123 28.6039 18.8718C28.7855 18.5796 29.0399 18.1904 29.2028 17.8888C29.9692 16.5593 30.5584 15.1273 30.9539 13.6323C31.1838 12.8088 31.3359 11.9639 31.4079 11.1095C31.4338 10.7688 31.4418 10.4269 31.4318 10.0853C31.3535 11.4429 31.0079 12.7666 30.5637 14.0386C30.5382 14.1201 30.5065 14.1972 30.4768 14.2758L30.3871 14.5114C30.3253 14.6663 30.2736 14.8232 30.2047 14.9809C30.1288 15.1533 29.9809 15.4956 29.9034 15.6737C29.8454 15.8013 29.6294 16.2284 29.573 16.3495L29.5178 16.462L29.4579 16.572C29.3405 16.786 29.2192 17.0203 29.0979 17.2302C29.0055 17.3818 28.8024 17.7193 28.7096 17.8709C28.6294 18.0021 28.3777 18.3628 28.2951 18.492C28.2642 18.5409 28.1863 18.6513 28.1526 18.6958C28.0086 18.8902 27.8567 19.1033 27.7111 19.2961C27.6043 19.4269 27.3491 19.7444 27.2442 19.8748C27.1393 20.0052 26.8618 20.3089 26.7557 20.4332C26.5722 20.6439 26.2681 20.9426 26.0747 21.1476C25.6057 21.6082 25.1144 22.0435 24.6026 22.4518C23.1975 23.5795 21.6182 24.4741 19.9947 25.2097C17.6084 26.2864 15.0873 27.0044 12.5069 27.342C11.4109 27.4733 10.2959 27.5601 9.19641 27.4411C7.83317 26.9928 6.55095 26.3444 5.40298 25.4726C8.02535 26.0798 12.0795 24.9277 14.5226 24.0054C20.5892 21.6677 26.2645 17.531 29.5523 11.6267C29.6779 11.4066 29.8337 11.1006 29.9511 10.8748C30.4317 9.9405 30.7404 8.92097 30.8615 7.86865C30.9398 7.11223 30.9445 6.33461 30.766 5.59449C30.8834 6.34113 30.8345 7.10489 30.7112 7.84542C30.5357 8.86 30.1884 9.83401 29.6854 10.7219C29.5632 10.9375 29.3934 11.2359 29.2638 11.4458C25.3252 17.9259 18.5004 22.385 11.5436 24.5796C10.5038 24.9047 9.44477 25.1592 8.3733 25.3418C7.38306 25.4893 6.36504 25.6132 5.37088 25.4469C4.79794 25.0096 4.26471 24.5184 3.77789 23.9797C3.44585 23.6119 3.1368 23.2223 2.85262 22.8133C4.70003 22.9592 8.64533 21.7716 10.1127 21.2825C13.3766 20.1988 16.5618 18.8523 19.5759 17.1487C21.2456 16.1999 22.8711 15.1109 24.3118 13.7965C24.6723 13.477 25.032 13.1445 25.3847 12.8156C26.4414 11.8122 27.47 10.7603 28.3526 9.58568C29.2701 8.3353 30.1601 6.81716 29.937 5.1796C29.8255 4.38201 29.4313 3.66105 28.9276 3.06561C29.1556 3.37931 29.3486 3.71894 29.503 4.07798C30.2584 5.8052 29.447 7.51204 28.4243 8.8961C27.3859 10.2846 26.1307 11.4869 24.8531 12.6354C23.7181 13.658 22.5439 14.6414 21.2613 15.4618C18.3833 17.3329 15.2729 18.7915 12.1159 20.0757C10.3546 20.7857 8.56744 21.4305 6.75135 21.9705C5.66208 22.2896 4.55951 22.5916 3.43659 22.7342C3.23482 22.7591 3.03191 22.7727 2.82875 22.775C2.05848 21.6624 1.4749 20.4295 1.04358 19.1327C1.12561 19.0403 1.21505 18.9553 1.3109 18.8788C1.47057 18.7519 1.63677 18.6342 1.80876 18.5262C2.8444 17.8782 3.94932 17.3614 5.05033 16.8463C6.10984 16.3572 7.31222 15.8315 8.39013 15.3754C10.9878 14.2713 13.6494 13.2093 16.2835 12.1965C17.0373 11.9018 17.8099 11.6345 18.5618 11.3341C20.0776 10.7253 21.553 10.0127 22.9783 9.20095C24.5298 8.29943 27.5968 6.40104 27.8278 4.43785C27.9577 3.23923 26.8712 2.41311 25.971 1.9212C24.515 1.15825 22.8789 0.759255 21.2538 0.825687C21.4558 0.832208 21.6569 0.845793 21.857 0.866442C22.4559 0.935814 23.0481 1.05853 23.6269 1.23324C24.843 1.60779 26.3839 2.26273 27.1581 3.34071C27.3718 3.64841 27.4888 4.00951 27.4348 4.38446C27.245 5.62017 25.7455 6.77599 24.7937 7.4615C22.6269 8.9613 20.246 10.1082 17.8166 11.0671C17.2514 11.2791 16.6713 11.4967 16.1101 11.7164C13.094 12.9048 10.0849 14.1731 7.1447 15.5547C6.10358 16.0568 1.83381 18.0408 1.03888 19.1253C0.583294 17.7527 0.297182 16.3091 0.138665 14.8615C0.434171 14.4947 0.8287 14.2379 1.21932 13.995C2.43891 13.2692 3.75558 12.7442 5.0652 12.2226C9.42773 10.543 14.0102 9.16304 18.4436 7.69299C19.3391 7.39548 20.2342 7.09715 21.1251 6.7711C22.0253 6.44139 22.9255 6.07826 23.7373 5.53091C24.5385 5.00109 25.3811 4.08939 24.6375 3.11166C24.232 2.59855 23.6304 2.30022 23.0789 2.05732C22.6339 1.85925 22.1591 1.73372 21.6879 1.63631C20.7544 1.44558 19.8119 1.34695 18.8655 1.28826C15.9774 1.13543 10.8732 1.29234 8.62419 3.30811C8.44821 3.47149 8.293 3.65762 8.16234 3.86197C8.73221 3.07295 9.63361 2.65765 10.5084 2.35402C11.8442 1.91182 13.2482 1.72638 14.6419 1.63468C16.5065 1.51675 18.3775 1.5802 20.2307 1.8242C21.1392 1.95991 22.0589 2.1046 22.9036 2.4877C23.3091 2.67354 23.72 2.89077 24.0527 3.18706C24.3498 3.45401 24.5533 3.79839 24.3694 4.18557C24.014 4.90002 22.9521 5.41517 22.2496 5.73673C21.3932 6.11535 20.5031 6.40349 19.6186 6.70508C17.5496 7.39792 14.9703 8.22404 12.9112 8.93115C9.78782 10.0079 6.66093 11.1042 3.66086 12.5201C2.80605 12.9325 1.95749 13.3682 1.16961 13.9098C0.791909 14.178 0.408731 14.4674 0.139057 14.857C0.0689965 14.2131 0.0243766 13.5687 0.0016755 12.9293C-0.0425526 16.8825 0.789953 20.1736 2.36612 22.7253L2.31093 22.7106C2.32972 22.7175 2.35007 22.7236 2.36886 22.7297C5.07499 27.1069 9.97256 29.3101 16.395 28.9653C20.3591 28.7122 24.8332 27.5246 28.0791 25.0638C28.5284 24.7068 28.9577 24.3127 29.3202 23.8566C32.458 19.9347 33.4749 14.6483 32.8025 9.66638Z" fill="black"/>
<path d="M5.47412 4.66197C6.97788 6.01383 9.91963 6.41446 11.8539 6.56158C14.3197 6.72175 16.8176 6.58359 19.2255 5.99101C20.4134 5.678 21.6287 5.27289 22.6033 4.4749C20.1766 5.83287 15.5828 5.8398 12.8312 5.63725C11.1874 5.51131 6.46867 4.98516 5.78959 3.31418C5.59389 2.81411 6.3532 2.38292 6.71564 2.18526C7.63504 1.70882 8.64445 1.43046 9.64095 1.17044C11.4167 0.723763 13.2035 0.409538 15.0117 0.092052C13.4774 0.0309762 11.9409 0.0922886 10.4155 0.275452C9.49026 0.387122 8.57087 0.544031 7.66752 0.791417C6.75047 1.05877 5.59585 1.44351 5.00601 2.28062C4.45296 3.09614 4.81305 4.05267 5.47412 4.66197Z" fill="black"/>
<path d="M14.5227 6.93899C14.3661 6.93369 14.2131 6.9341 14.0581 6.93247C12.9775 6.93532 11.8917 6.99564 10.8158 7.09549C8.96719 7.26911 7.12018 7.55032 5.31309 8.00434C4.10641 8.31612 2.89855 8.69229 1.7905 9.2967C1.47671 9.46642 1.17965 9.66777 0.903592 9.89784C0.68863 10.0743 0.50298 10.2863 0.354068 10.5255C0.960344 9.86442 1.94471 9.51352 2.76547 9.23149C6.59688 8.05692 10.5927 7.64651 14.5227 6.93899Z" fill="black"/>
<path d="M7.17982 7.10772C7.50048 7.13415 7.82271 7.13224 8.14305 7.10201C6.76142 6.77312 5.40326 6.37901 4.11165 5.79784C3.55547 5.52966 2.81455 5.16287 2.52844 4.58169C2.35544 4.22508 2.4893 3.81712 2.69518 3.49759C2.04154 4.04494 2.12882 4.78302 2.68578 5.36909C3.73082 6.45196 5.74065 6.99442 7.17982 7.10772Z" fill="black"/>
<path d="M3.51724 8.23463C3.69233 8.21339 3.86515 8.17532 4.0335 8.12092C3.85776 8.11318 3.68554 8.11073 3.51529 8.09443C2.19118 7.99702 1.38099 7.28788 0.91718 6.01142C0.995852 7.43949 2.16026 8.41232 3.51724 8.23463Z" fill="black"/>
<path d="M19.8136 3.1149C20.3251 3.16917 20.833 3.25614 21.3342 3.37533C21.5226 3.41897 21.7062 3.48247 21.8822 3.56484C21.9405 3.5927 21.9935 3.63121 22.0387 3.67855C21.7972 3.36596 20.9937 3.16829 20.609 3.06477C17.8609 2.38619 12.0765 2.21543 10.2173 4.77895C12.107 2.69716 17.2194 2.82309 19.8136 3.1149Z" fill="black"/>
<path d="M45.3242 13.908C45.5622 13.7266 45.8512 13.636 46.1912 13.636C46.5426 13.636 46.8372 13.755 47.0752 13.993C47.3246 14.231 47.4492 14.5993 47.4492 15.098V20.504C47.4492 20.98 47.3756 21.3086 47.2282 21.49C46.9336 21.83 46.5029 22 45.9362 22H40.0202V20.844H41.0912V10.389H40.0372V9.24996H43.5902C44.7462 9.24996 45.3242 9.75429 45.3242 10.763V13.908ZM43.9472 14.775V10.389H42.4852V15.693L43.9472 14.775ZM46.0892 14.792L42.4852 17.053V20.827H46.0892V14.792Z" fill="black"/>
<path d="M55.3481 14.656V20.861H56.4021V22H53.0871V20.861H54.0221V19.62L52.6111 18.702L51.4381 20.487C51.3021 20.7023 51.1775 20.9063 51.0641 21.099C50.9621 21.2803 50.8545 21.439 50.7411 21.575C50.4918 21.8583 50.1461 22 49.7041 22H48.7181V20.861H49.7891L51.6081 18.056L50.6221 17.41C50.2368 17.1493 49.9931 16.9566 49.8911 16.832C49.6758 16.5713 49.5681 16.237 49.5681 15.829V14.826C49.5681 14.1686 49.9025 13.7493 50.5711 13.568C50.7638 13.5226 50.9678 13.5 51.1831 13.5H56.4021V14.656H55.3481ZM54.0221 14.656H50.8431V16.322L54.0221 18.396V14.656Z" fill="black"/>
<path d="M63.5049 16.339C63.5049 16.8603 63.3066 17.2343 62.9099 17.461C62.7626 17.5403 62.5869 17.5856 62.3829 17.597C63.2216 17.6196 63.6409 17.9936 63.6409 18.719V20.504C63.6409 20.9913 63.5786 21.32 63.4539 21.49C63.2159 21.83 62.7966 22 62.1959 22H57.9459V19.518H59.0849V20.844H62.3319V18.175H59.9859V17.053H62.1789V14.673H59.0849V15.982H57.9459V13.5H61.8899C62.5246 13.5 62.9496 13.636 63.1649 13.908C63.3916 14.1686 63.5049 14.537 63.5049 15.013V16.339Z" fill="black"/>
<path d="M72.2696 20.844V22H66.3536C65.7756 22 65.3903 21.8866 65.1976 21.66C65.005 21.456 64.9086 21.0706 64.9086 20.504V19.875C64.9086 19.467 64.9596 19.1893 65.0616 19.042C65.209 18.8266 65.5433 18.5603 66.0646 18.243L69.8046 15.914V14.656H66.4726V15.642H65.3846V13.5H69.6346C70.2126 13.5 70.615 13.6246 70.8416 13.874C71.0796 14.1233 71.1986 14.486 71.1986 14.962V20.844H72.2696ZM69.8046 17.274L66.2686 19.484V20.844H69.8046V17.274Z" fill="black"/>
<path d="M79.0024 20.844H79.9884V18.226H76.1124V20.844H77.0984V22H73.7154V20.844H74.8034V14.69H73.7154V13.5H77.0984V14.69H76.1124V17.002H79.9884V14.69H79.0024V13.5H82.4024V14.69H81.3144V20.844H82.4024V22H79.0024V20.844Z" fill="black"/>
<path d="M84.0104 20.793H85.0984V14.707H84.0104V13.5H87.5804V14.707H86.4414V18.09L89.2634 16.305C89.5354 16.135 89.8074 16.05 90.0794 16.05C90.3627 16.05 90.6064 16.1576 90.8104 16.373C91.0144 16.5883 91.1164 16.8716 91.1164 17.223V20.504C91.1164 21.0026 91.0484 21.3426 90.9124 21.524C90.6744 21.8413 90.2437 22 89.6204 22H84.0104V20.793ZM89.7734 17.359L86.4414 19.45V20.844H89.7734V17.359Z" fill="black"/>
</svg>
