<svg width="29" height="28" viewBox="0 0 29 28" fill="none" xmlns="http://www.w3.org/2000/svg">
<path d="M0 14C0 6.26801 6.49187 0 14.5 0C22.5081 0 29 6.26801 29 14C29 21.732 22.5081 28 14.5 28C6.49187 28 0 21.732 0 14Z" fill="#4F4F4F"/>
<path d="M16.0683 17.1736L18.2352 19.1934C18.6792 19.6063 18.6792 20.2768 18.2352 20.6901C17.7918 21.1034 17.073 21.1034 16.63 20.6901L14.4995 18.7053L12.3708 20.6901C12.1489 20.8966 11.858 20.9999 11.5672 20.9999C11.2768 20.9999 10.9864 20.8966 10.7645 20.6901C10.321 20.2768 10.321 19.6067 10.764 19.1934L12.9312 17.1736C12.1421 17.0061 11.3812 16.7147 10.6803 16.3049C10.1498 15.9932 9.99051 15.3401 10.3247 14.8454C10.658 14.3499 11.3589 14.2008 11.8903 14.5125C13.4771 15.4428 15.5214 15.443 17.1092 14.5125C17.6406 14.2008 18.3412 14.3499 18.6752 14.8454C19.0094 15.3397 18.8496 15.9932 18.3192 16.3049C17.6183 16.7152 16.8573 17.0061 16.0683 17.1736Z" fill="white"/>
<path fill-rule="evenodd" clip-rule="evenodd" d="M10.6138 10.6129C10.6138 12.6046 12.3523 14.2248 14.4901 14.2248C16.6282 14.2248 18.3663 12.6046 18.3663 10.6129C18.3663 8.62056 16.6282 7 14.4901 7C12.3523 7 10.6138 8.62056 10.6138 10.6129ZM16.095 10.6129C16.095 9.78805 15.3751 9.1173 14.4901 9.1173C13.6057 9.1173 12.8851 9.78805 12.8851 10.6129C12.8851 11.4371 13.6057 12.1083 14.4901 12.1083C15.3751 12.1083 16.095 11.4371 16.095 10.6129Z" fill="white"/>
</svg>
