<svg width="29" height="28" viewBox="0 0 29 28" fill="none" xmlns="http://www.w3.org/2000/svg">
<path d="M14.5 28C22.5081 28 29 21.732 29 14C29 6.26803 22.5081 0 14.5 0C6.49189 0 0 6.26803 0 14C0 21.732 6.49189 28 14.5 28Z" fill="#4F4F4F"/>
<path d="M5.40015 14.6849C7.09519 13.7834 8.98732 13.031 10.7552 12.2748C13.7967 11.0361 16.8503 9.81895 19.9347 8.68576C20.5348 8.49268 21.6131 8.30386 21.7188 9.16252C21.6609 10.378 21.4228 11.5863 21.2594 12.7946C20.8448 15.4518 20.3655 18.0999 19.8982 20.7483C19.7372 21.6305 18.5926 22.0872 17.8602 21.5227C16.1002 20.3748 14.3266 19.2381 12.589 18.0636C12.0198 17.5052 12.5476 16.7033 13.056 16.3045C14.5056 14.9252 16.043 13.7532 17.4168 12.3026C17.7874 11.4385 16.6924 12.1667 16.3313 12.3899C14.3467 13.7103 12.4107 15.1114 10.3184 16.2718C9.24959 16.8399 8.00392 16.3544 6.93563 16.0375C5.97777 15.6546 4.57416 15.2688 5.40005 14.6849L5.40015 14.6849Z" fill="white"/>
</svg>
