<svg width="29" height="28" viewBox="0 0 29 28" fill="none" xmlns="http://www.w3.org/2000/svg">
<path fill-rule="evenodd" clip-rule="evenodd" d="M10.0487 0H18.9513C27.0762 0 29 1.85744 29 9.70217V18.2978C29 26.1425 27.0762 28 18.9513 28H10.0487C1.92378 28 0 26.1425 0 18.2978V9.70217C0 1.85744 1.92378 0 10.0487 0Z" fill="#4F4F4F"/>
<path fill-rule="evenodd" clip-rule="evenodd" d="M23.7029 8.93715C23.8462 8.50245 23.7029 8.18628 23.0685 8.18628H20.9605C20.4284 8.18628 20.1828 8.4629 20.0396 8.75935C20.0396 8.75935 18.9549 11.2886 17.4404 12.9287C16.9492 13.4029 16.7241 13.561 16.4581 13.561C16.3148 13.561 16.1306 13.4029 16.1306 12.9682V8.91737C16.1306 8.40363 15.9669 8.1665 15.5166 8.1665H12.2012C11.8737 8.1665 11.6691 8.40363 11.6691 8.64075C11.6691 9.13478 12.4263 9.25331 12.5082 10.6365V13.64C12.5082 14.2921 12.3854 14.4107 12.1193 14.4107C11.403 14.4107 9.66344 11.8616 8.61968 8.95692C8.41499 8.38385 8.21036 8.1665 7.67827 8.1665H5.54979C4.93583 8.1665 4.8335 8.44318 4.8335 8.73957C4.8335 9.27309 5.54979 11.9604 8.1694 15.5173C9.90903 17.9477 12.3854 19.2519 14.6162 19.2519C15.9669 19.2519 16.1306 18.9555 16.1306 18.4615V16.6238C16.1306 16.031 16.2534 15.9322 16.6832 15.9322C16.9902 15.9322 17.5427 16.0903 18.7911 17.2561C20.2237 18.6393 20.4693 19.2717 21.2675 19.2717H23.3755C23.9894 19.2717 24.276 18.9753 24.1123 18.4022C23.9281 17.8292 23.2322 16.9993 22.3317 16.0112C21.8405 15.458 21.1038 14.8454 20.8786 14.549C20.5717 14.1538 20.6535 13.9958 20.8786 13.64C20.8582 13.64 23.4369 10.1228 23.7029 8.93715Z" fill="white"/>
</svg>
